<svg xmlns="http://www.w3.org/2000/svg" viewBox="0 0 920 460" width="920" height="460"
     font-family="system-ui,-apple-system,BlinkMacSystemFont,'Segoe UI',Helvetica,Arial,sans-serif">
  <rect width="920" height="460" fill="#ffffff" rx="10"/>

  <text x="30" y="36" font-size="16" fill="#212529" font-weight="700">
    Requests handled per second
  </text>
  <text x="30" y="56" font-size="11" fill="#868e96">
    16-core Google Cloud machine  ·  higher is better  ·  1 KB responses
  </text>

  <!-- Legend -->
  <rect x="640" y="28" width="12" height="12" rx="2" fill="#ced4da"/>
  <text x="658" y="38" font-size="11" fill="#495057">nginx</text>
  <rect x="710" y="28" width="12" height="12" rx="2" fill="#adb5bd"/>
  <text x="728" y="38" font-size="11" fill="#495057">Pingora (Rust)</text>
  <rect x="830" y="28" width="12" height="12" rx="2" fill="#9775fa"/>
  <text x="848" y="38" font-size="11" fill="#5f3dc4" font-weight="700">tachyon (Go)</text>

  <!-- Scale: 0–220k over x=180..x=870 (690px / 220k = 0.003136 px per req) -->
  <line x1="180" y1="90" x2="180" y2="420" stroke="#dee2e6" stroke-width="1"/>
  <line x1="337" y1="90" x2="337" y2="420" stroke="#f1f3f5" stroke-width="1"/>
  <line x1="493" y1="90" x2="493" y2="420" stroke="#f1f3f5" stroke-width="1"/>
  <line x1="650" y1="90" x2="650" y2="420" stroke="#f1f3f5" stroke-width="1"/>
  <line x1="807" y1="90" x2="807" y2="420" stroke="#f1f3f5" stroke-width="1"/>

  <text x="337" y="437" text-anchor="middle" font-size="10" fill="#adb5bd">50k</text>
  <text x="493" y="437" text-anchor="middle" font-size="10" fill="#adb5bd">100k</text>
  <text x="650" y="437" text-anchor="middle" font-size="10" fill="#adb5bd">150k</text>
  <text x="807" y="437" text-anchor="middle" font-size="10" fill="#adb5bd">200k</text>

  <!-- Row 1: Plain HTTP, GET -->
  <text x="170" y="108" text-anchor="end" font-size="12" fill="#212529" font-weight="600">Plain HTTP</text>
  <text x="170" y="124" text-anchor="end" font-size="10" fill="#868e96">regular GETs</text>
  <!-- nginx 138,276 => 180 + 138276*0.003136 = 180+434 = 614 -->
  <rect x="180" y="96" width="434" height="14" rx="2" fill="#ced4da"/>
  <text x="623" y="107" font-size="10" fill="#495057">138,276</text>
  <!-- Pingora 146,742 => 180 + 460 = 640 -->
  <rect x="180" y="112" width="460" height="14" rx="2" fill="#adb5bd"/>
  <text x="649" y="123" font-size="10" fill="#495057">146,742</text>
  <!-- tachyon 143,802 (from prior uring-path matrix run) => 180 + 451 = 631 -->
  <rect x="180" y="128" width="451" height="14" rx="2" fill="#9775fa"/>
  <text x="640" y="139" font-size="10" fill="#5f3dc4" font-weight="700">143,802</text>

  <!-- Row 2: HTTPS (TLS 1.3, HTTP/1.1) -->
  <text x="170" y="178" text-anchor="end" font-size="12" fill="#212529" font-weight="600">HTTPS</text>
  <text x="170" y="194" text-anchor="end" font-size="10" fill="#868e96">TLS 1.3, HTTP/1.1</text>
  <!-- nginx 96,028 => 180 + 301 = 481 -->
  <rect x="180" y="166" width="301" height="14" rx="2" fill="#ced4da"/>
  <text x="490" y="177" font-size="10" fill="#495057">96,028</text>
  <!-- Pingora: bench script lacks TLS; draw faint placeholder -->
  <rect x="180" y="182" width="0" height="14" rx="2" fill="#dee2e6"/>
  <text x="188" y="193" font-size="10" fill="#adb5bd">Pingora bench has no TLS setup</text>
  <!-- tachyon 93,331 => 180 + 293 = 473 -->
  <rect x="180" y="198" width="293" height="14" rx="2" fill="#9775fa"/>
  <text x="482" y="209" font-size="10" fill="#5f3dc4" font-weight="700">93,331</text>

  <!-- Row 3: HTTPS + HTTP/2 -->
  <text x="170" y="248" text-anchor="end" font-size="12" fill="#212529" font-weight="600">HTTPS + HTTP/2</text>
  <text x="170" y="264" text-anchor="end" font-size="10" fill="#868e96">multiplexed, c=32 m=10</text>
  <!-- nginx 210,287 => 180 + 659 = 839 -->
  <rect x="180" y="236" width="659" height="14" rx="2" fill="#ced4da"/>
  <text x="848" y="247" font-size="10" fill="#495057">210,287</text>
  <!-- Pingora: n/a -->
  <rect x="180" y="252" width="0" height="14" rx="2" fill="#dee2e6"/>
  <text x="188" y="263" font-size="10" fill="#adb5bd">Pingora bench has no TLS setup</text>
  <!-- tachyon 169,490 => 180 + 531 = 711 -->
  <rect x="180" y="268" width="531" height="14" rx="2" fill="#9775fa"/>
  <text x="720" y="279" font-size="10" fill="#5f3dc4" font-weight="700">169,490</text>

  <!-- Row 4: Plain POST, small body -->
  <text x="170" y="318" text-anchor="end" font-size="12" fill="#212529" font-weight="600">Small POSTs</text>
  <text x="170" y="334" text-anchor="end" font-size="10" fill="#868e96">1 KB request body</text>
  <!-- nginx 123,475 => 180 + 387 = 567 -->
  <rect x="180" y="306" width="387" height="14" rx="2" fill="#ced4da"/>
  <text x="576" y="317" font-size="10" fill="#495057">123,475</text>
  <!-- Pingora 126,270 => 180 + 396 = 576 -->
  <rect x="180" y="322" width="396" height="14" rx="2" fill="#adb5bd"/>
  <text x="585" y="333" font-size="10" fill="#495057">126,270</text>
  <!-- tachyon 123,137 => 180 + 386 = 566 -->
  <rect x="180" y="338" width="386" height="14" rx="2" fill="#9775fa"/>
  <text x="575" y="349" font-size="10" fill="#5f3dc4" font-weight="700">123,137</text>

  <!-- Row 5: POST large body -->
  <text x="170" y="388" text-anchor="end" font-size="12" fill="#212529" font-weight="600">Large uploads</text>
  <text x="170" y="404" text-anchor="end" font-size="10" fill="#868e96">64 KB request body</text>
  <!-- nginx 33,823 => 180 + 106 = 286 -->
  <rect x="180" y="376" width="106" height="14" rx="2" fill="#ced4da"/>
  <text x="295" y="387" font-size="10" fill="#495057">33,823</text>
  <!-- Pingora 33,237 => 180 + 104 = 284 -->
  <rect x="180" y="392" width="104" height="14" rx="2" fill="#adb5bd"/>
  <text x="293" y="403" font-size="10" fill="#495057">33,237</text>
  <!-- tachyon 34,979 => 180 + 110 = 290 -->
  <rect x="180" y="408" width="110" height="14" rx="2" fill="#9775fa"/>
  <text x="299" y="419" font-size="10" fill="#5f3dc4" font-weight="700">34,979</text>
</svg>
