<svg xmlns="http://www.w3.org/2000/svg" viewBox="0 0 920 260" width="920" height="260"
     font-family="system-ui,-apple-system,BlinkMacSystemFont,'Segoe UI',Helvetica,Arial,sans-serif">
  <rect width="920" height="260" fill="#ffffff" rx="10"/>

  <text x="30" y="34" font-size="14" fill="#212529" font-weight="700" letter-spacing="0.2">
    Throughput  ·  plaintext GET, 256 conns, keep-alive
  </text>
  <text x="30" y="52" font-size="10.5" fill="#868e96">
    requests per second  ·  16-core GCE machine  ·  higher is better
  </text>

  <!-- Scale: 160,000 rps → 660 px at x=150 (so 1k = 4.125 px) -->
  <line x1="150" y1="80" x2="150" y2="230" stroke="#dee2e6" stroke-width="1"/>
  <line x1="315" y1="80" x2="315" y2="230" stroke="#f1f3f5" stroke-width="1"/>
  <line x1="480" y1="80" x2="480" y2="230" stroke="#f1f3f5" stroke-width="1"/>
  <line x1="645" y1="80" x2="645" y2="230" stroke="#f1f3f5" stroke-width="1"/>
  <line x1="810" y1="80" x2="810" y2="230" stroke="#f1f3f5" stroke-width="1"/>

  <text x="315" y="247" text-anchor="middle" font-size="9.5" fill="#adb5bd">40k</text>
  <text x="480" y="247" text-anchor="middle" font-size="9.5" fill="#adb5bd">80k</text>
  <text x="645" y="247" text-anchor="middle" font-size="9.5" fill="#adb5bd">120k</text>
  <text x="810" y="247" text-anchor="middle" font-size="9.5" fill="#adb5bd">160k</text>

  <!-- nginx bar: 138,276 / 160,000 * 660 = 570 px -->
  <text x="140" y="102" text-anchor="end" font-size="12" fill="#495057" font-weight="500">nginx</text>
  <rect x="150" y="88" width="570" height="22" rx="3" fill="#ced4da"/>
  <text x="730" y="104" font-size="11" fill="#495057">138,276 rps</text>

  <!-- Pingora bar: 146,742 / 160,000 * 660 = 605 px -->
  <text x="140" y="142" text-anchor="end" font-size="12" fill="#495057" font-weight="500">Pingora</text>
  <rect x="150" y="128" width="605" height="22" rx="3" fill="#ced4da"/>
  <text x="765" y="144" font-size="11" fill="#495057">146,742 rps</text>
  <text x="140" y="156" text-anchor="end" font-size="9" fill="#adb5bd">Rust</text>

  <!-- tachyon bar: 143,802 / 160,000 * 660 = 593 px -->
  <text x="140" y="196" text-anchor="end" font-size="12" fill="#5f3dc4" font-weight="700">tachyon</text>
  <rect x="150" y="182" width="593" height="26" rx="3" fill="#9775fa"/>
  <text x="753" y="200" font-size="12" fill="#5f3dc4" font-weight="700">143,802 rps</text>
  <text x="140" y="210" text-anchor="end" font-size="9" fill="#7950f2">Go</text>
</svg>
